<svg width="150" height="150" viewBox="0 0 150 150" fill="none" xmlns="http://www.w3.org/2000/svg">
<path d="M91.692 132.12C123.457 122.683 141.557 89.2812 132.12 57.516C122.683 25.7508 89.2812 7.65058 57.516 17.088C25.7508 26.5255 7.65056 59.9268 17.088 91.692C26.5254 123.457 59.9268 141.557 91.692 132.12Z" fill="#75C7D2"/>
<path fill-rule="evenodd" clip-rule="evenodd" d="M124.243 63.5591C124.243 95.0961 98.6264 120.599 67.2033 120.599C45.3437 120.713 26.3304 108.417 16.7668 90.4281C23.7118 115.931 46.9376 134.603 74.6037 134.603C107.735 134.603 134.604 107.734 134.604 74.6027C134.604 55.0202 125.268 37.6008 110.695 26.671C119.12 36.69 124.243 49.5553 124.243 63.5591Z" fill="#54B9C3"/>
<path fill-rule="evenodd" clip-rule="evenodd" d="M30.5429 62.762C29.8598 65.1529 27.355 66.4053 25.078 65.7222C22.6871 65.0391 21.4347 62.5343 22.1178 60.2573C24.281 52.8569 28.0381 46.1396 32.9338 40.2193C37.8294 34.299 43.9774 29.2896 50.8085 25.6463C52.9717 24.5078 55.7042 25.3047 56.8427 27.4679C57.9812 29.6311 57.1842 32.3636 55.0211 33.5021C49.2146 36.5761 43.9774 40.7886 39.7649 45.7981C35.4385 50.8076 32.3645 56.5002 30.5429 62.762ZM66.9755 29.0619C64.5846 29.6311 62.1937 28.151 61.6245 25.7601C61.0552 23.3693 62.5353 20.9784 64.9262 20.4091C66.0647 20.1814 67.3171 19.9537 68.6833 19.726C69.9357 19.4983 71.188 19.3844 72.4404 19.2706C74.8313 19.0429 76.9945 20.8645 77.2222 23.2554C77.4499 25.6463 75.6283 27.8095 73.2374 28.0372C72.2127 28.151 71.0742 28.2649 70.0495 28.3787C69.0248 28.6064 68.0002 28.8341 66.9755 29.0619Z" fill="#A5D9E7"/>
<path fill-rule="evenodd" clip-rule="evenodd" d="M102.953 127.43C105.571 125.267 109.898 122.648 109.898 120.827C109.898 118.322 109.67 114.565 112.63 112.629C115.59 110.694 118.892 109.555 118.892 106.937C118.892 104.318 118.664 101.586 120.031 98.967C121.511 96.2346 122.308 96.9177 122.308 94.6406C122.308 92.4774 121.625 91.6805 120.144 91.6805C118.664 91.6805 118.095 90.2004 118.095 90.2004C116.387 86.3294 113.883 88.7203 110.922 86.3294C107.962 83.8247 105.913 78.7013 101.928 78.7013C97.9433 78.7013 97.9433 78.929 96.5771 77.9044C95.2109 76.8797 94.8693 75.9689 93.9585 74.7165C93.0477 73.578 92.4784 73.4641 89.9737 73.4641C87.4689 73.4641 87.3551 71.301 85.875 71.301C84.3949 71.301 84.1672 71.301 82.1179 71.301C80.0685 71.301 79.727 71.8702 78.0192 73.6919C76.3114 75.5135 74.8313 76.3105 73.3513 75.9689C71.8712 75.6273 70.8465 74.7165 70.8465 73.3503C70.8465 71.9841 70.8465 72.2118 70.8465 70.0486C70.8465 67.8854 70.3911 67.43 69.1388 66.8607C67.8864 66.1776 66.8617 65.2668 68.3418 63.7867C69.8219 62.3067 70.7327 60.7127 69.8219 60.7127C69.0249 60.7127 67.431 60.7127 65.6093 60.7127C63.6739 60.7127 62.763 60.8266 61.9661 61.7374C61.0553 62.6482 60.2583 64.0144 59.5752 63.9006C59.0059 63.7867 58.4367 62.6482 58.6644 61.9651C58.8921 61.3958 60.486 55.7032 62.6492 53.9955C64.8124 52.2877 66.8617 53.0846 67.7725 53.9955C68.6833 54.9063 68.7972 58.0941 71.7573 57.1833C74.7175 56.2725 75.7422 49.5552 77.6777 47.7336C79.6131 45.912 85.3057 46.9366 88.8351 41.9272C92.3646 36.9177 94.3 32.819 96.5771 32.819C98.8541 32.819 99.0818 32.819 102.725 32.819C106.368 32.819 107.621 31.9082 107.621 28.4926C107.621 26.671 108.759 26.2156 109.784 25.874C107.621 24.2801 105.23 22.8 102.839 21.5476C102.27 21.7754 101.587 22.1169 100.903 22.9139C99.3095 24.8494 97.6018 25.874 96.3494 25.3048C95.097 24.7355 94.8693 24.1662 93.3892 24.1662C91.9091 24.1662 90.7706 24.9632 90.2014 26.1017C89.6321 27.2402 88.3797 28.948 87.2412 28.948C86.1027 28.948 85.7611 28.4926 85.7611 27.9234C85.7611 27.3541 85.7611 26.4433 85.7611 25.3048C85.7611 24.2801 85.4196 22.9139 83.1425 22.9139C80.8655 22.9139 79.2716 22.4585 80.4101 20.9784C81.3209 19.726 82.5733 16.4243 85.1919 15.5135C76.3114 13.9196 66.8617 14.375 57.5259 17.1074C44.4329 20.9784 33.7308 28.948 26.2166 39.0809C28.3797 42.838 30.2014 45.7981 30.9983 46.3674C33.9585 48.5306 36.1217 51.6046 39.9926 51.6046C43.8636 51.6046 47.0515 52.06 47.0515 55.8171C47.0515 59.5742 45.4575 59.5742 45.4575 62.5344C45.4575 65.4945 46.9376 66.1776 48.7592 66.1776C50.5809 66.1776 51.7194 66.1776 56.0458 66.1776C60.3722 66.1776 59.689 68.5685 62.8769 68.5685C66.0648 68.5685 65.9509 71.1871 66.9756 73.1226C68.0002 75.0581 69.2526 77.7905 72.6682 77.7905C76.0837 77.7905 75.4006 80.6368 73.579 83.597C71.7573 86.5571 69.0249 89.5173 69.0249 92.5913C69.0249 95.6653 68.911 97.7146 72.8959 97.7146C76.8807 97.7146 73.9205 102.838 78.8162 102.838C83.598 102.838 83.2564 106.026 83.2564 109.897C83.2564 113.654 85.3057 113.198 85.3057 115.703C85.3057 118.208 85.3057 119.005 85.3057 122.307C85.3057 125.608 85.4196 127.43 87.4689 129.365C88.2659 130.162 88.7213 131.301 89.1767 132.667C89.9737 132.439 90.8845 132.212 91.6814 131.984C95.6663 130.959 99.4234 129.365 102.953 127.43Z" fill="#33A638"/>
<path fill-rule="evenodd" clip-rule="evenodd" d="M102.953 127.43C105.571 125.267 109.898 122.648 109.898 120.827C109.898 118.322 109.67 114.565 112.63 112.629C115.59 110.694 118.892 109.555 118.892 106.937C118.892 104.318 118.664 101.586 120.031 98.967C121.511 96.2346 122.308 96.9177 122.308 94.6406C122.308 92.4774 121.624 91.6805 120.144 91.6805C118.664 91.6805 118.095 90.2004 118.095 90.2004C117.981 90.0866 117.981 89.8588 117.867 89.745C111.15 102.838 99.4233 112.971 85.3057 117.753V122.421C85.3057 125.722 85.4195 127.544 87.4689 129.479C88.2658 130.276 88.7212 131.415 89.1766 132.781C89.9736 132.553 90.8844 132.326 91.6814 132.098C95.0969 131.073 98.2848 129.821 101.359 128.341L101.473 128.227C101.7 128.113 101.928 127.999 102.156 127.885C102.497 127.772 102.725 127.658 102.953 127.43Z" fill="#2E923A"/>
<path fill-rule="evenodd" clip-rule="evenodd" d="M29.5181 44.4319C30.5427 42.9518 31.5674 41.5856 32.7059 40.2193C37.6016 34.299 43.7496 29.2896 50.5807 25.6463C52.7439 24.5078 55.4763 25.3047 56.6148 27.4679C57.7534 29.6311 56.9564 32.3636 54.7932 33.5021C48.9868 36.5761 43.7496 40.7886 39.537 45.7981C38.2847 47.2782 37.1461 48.7582 36.1215 50.3522C34.2998 49.2137 32.8198 47.6197 30.9981 46.2535C30.7704 46.1396 30.2012 45.4565 29.5181 44.4319ZM66.9754 29.0619C64.5845 29.6311 62.1936 28.151 61.6243 25.7601C61.0551 23.3693 62.5351 20.9784 64.926 20.4091C66.0646 20.1814 67.3169 19.9537 68.6832 19.726C69.9355 19.4983 71.1879 19.3844 72.4403 19.2706C74.8312 19.0429 76.9943 20.8645 77.222 23.2554C77.4498 25.6463 75.6281 27.8095 73.2372 28.0372C72.2126 28.151 71.074 28.2649 70.0494 28.3787C69.0247 28.6064 68 28.8341 66.9754 29.0619Z" fill="#53B233"/>
<path fill-rule="evenodd" clip-rule="evenodd" d="M52.0608 122.876C55.9317 122.876 59.1196 119.688 59.1196 115.817C59.1196 111.946 55.9317 108.758 52.0608 108.758C48.1898 108.758 45.002 111.946 45.002 115.817C45.002 119.688 48.1898 122.876 52.0608 122.876Z" fill="#54B9C3"/>
<path d="M40.1063 110.011C42.2442 110.011 43.9773 108.278 43.9773 106.14C43.9773 104.002 42.2442 102.269 40.1063 102.269C37.9684 102.269 36.2354 104.002 36.2354 106.14C36.2354 108.278 37.9684 110.011 40.1063 110.011Z" fill="#54B9C3"/>
<path d="M65.9508 119.233C66.9568 119.233 67.7724 118.417 67.7724 117.411C67.7724 116.405 66.9568 115.589 65.9508 115.589C64.9447 115.589 64.1292 116.405 64.1292 117.411C64.1292 118.417 64.9447 119.233 65.9508 119.233Z" fill="#54B9C3"/>
<path d="M117.64 84.0524C118.646 84.0524 119.461 83.2368 119.461 82.2308C119.461 81.2247 118.646 80.4091 117.64 80.4091C116.633 80.4091 115.818 81.2247 115.818 82.2308C115.818 83.2368 116.633 84.0524 117.64 84.0524Z" fill="#54B9C3"/>
<path fill-rule="evenodd" clip-rule="evenodd" d="M122.649 62.5344C126.975 62.5344 130.505 59.005 130.505 54.6786C130.505 50.3522 126.975 46.8228 122.649 46.8228C118.323 46.8228 114.793 50.3522 114.793 54.6786C114.793 59.005 118.323 62.5344 122.649 62.5344Z" fill="#54B9C3"/>
<path d="M115.59 72.3256C117.728 72.3256 119.461 70.5925 119.461 68.4546C119.461 66.3168 117.728 64.5837 115.59 64.5837C113.452 64.5837 111.719 66.3168 111.719 68.4546C111.719 70.5925 113.452 72.3256 115.59 72.3256Z" fill="#54B9C3"/>
</svg>
