<svg width="150" height="150" viewBox="0 0 150 150" fill="none" xmlns="http://www.w3.org/2000/svg">
<path d="M91.692 132.12C123.457 122.683 141.557 89.2812 132.12 57.516C122.683 25.7508 89.2812 7.65058 57.516 17.088C25.7508 26.5255 7.65056 59.9268 17.088 91.692C26.5254 123.457 59.9268 141.557 91.692 132.12Z" fill="#EA5F4C"/>
<path fill-rule="evenodd" clip-rule="evenodd" d="M124.243 63.5587C124.243 95.0957 98.6267 120.599 67.2035 120.599C45.3439 120.712 26.3307 108.416 16.7671 90.4278C23.7121 115.931 46.9379 134.602 74.6039 134.602C107.735 134.602 134.604 107.733 134.604 74.6023C134.604 55.0198 125.268 37.6004 110.695 26.6707C119.12 36.6896 124.243 49.5549 124.243 63.5587Z" fill="#D04146"/>
<path fill-rule="evenodd" clip-rule="evenodd" d="M30.5431 62.7617C29.86 65.1526 27.3553 66.405 25.0782 65.7219C22.6873 65.0388 21.435 62.534 22.1181 60.257C24.2813 52.8566 28.0384 46.1393 32.934 40.219C37.8297 34.2987 43.9777 29.2892 50.8088 25.646C52.972 24.5075 55.7044 25.3044 56.8429 27.4676C57.9815 29.6308 57.1845 32.3633 55.0213 33.5018C49.2149 36.5758 43.9777 40.7883 39.7651 45.7978C35.4388 50.8073 32.3648 56.4999 30.5431 62.7617ZM66.9758 29.0615C64.5849 29.6308 62.194 28.1507 61.6247 25.7598C61.0555 23.3689 62.5355 20.9781 64.9264 20.4088C66.0649 20.1811 67.3173 19.9534 68.6835 19.7257C69.9359 19.498 71.1883 19.3841 72.4407 19.2703C74.8315 19.0426 76.9947 20.8642 77.2224 23.2551C77.4501 25.646 75.6285 27.8092 73.2376 28.0369C72.213 28.1507 71.0744 28.2646 70.0498 28.3784C69.0251 28.6061 68.0004 28.8338 66.9758 29.0615Z" fill="#F29F6D"/>
<path fill-rule="evenodd" clip-rule="evenodd" d="M65.6094 128.796C70.6189 128.796 74.7175 124.697 74.7175 119.688C74.7175 114.678 70.6189 110.58 65.6094 110.58C60.5999 110.58 56.5012 114.678 56.5012 119.688C56.5012 124.697 60.5999 128.796 65.6094 128.796Z" fill="#D04146"/>
<path d="M79.6132 116.044C82.5685 116.044 84.9643 113.649 84.9643 110.693C84.9643 107.738 82.5685 105.342 79.6132 105.342C76.6579 105.342 74.2622 107.738 74.2622 110.693C74.2622 113.649 76.6579 116.044 79.6132 116.044Z" fill="#D04146"/>
<path d="M53.0859 115.931C54.1548 115.931 55.0214 115.064 55.0214 113.995C55.0214 112.926 54.1548 112.06 53.0859 112.06C52.0169 112.06 51.1504 112.926 51.1504 113.995C51.1504 115.064 52.0169 115.931 53.0859 115.931Z" fill="#D04146"/>
<path fill-rule="evenodd" clip-rule="evenodd" d="M120.942 78.5872C126.748 78.5872 131.53 73.8054 131.53 67.9989C131.53 62.1925 126.748 57.4107 120.942 57.4107C115.135 57.4107 110.353 62.1925 110.353 67.9989C110.467 73.8054 115.135 78.5872 120.942 78.5872Z" fill="#D04146"/>
<path fill-rule="evenodd" clip-rule="evenodd" d="M120.942 74.3746C124.357 74.3746 127.203 71.5283 127.203 68.1128C127.203 64.6972 124.357 61.8509 120.942 61.8509C117.526 61.8509 114.68 64.6972 114.68 68.1128C114.68 71.5283 117.526 74.3746 120.942 74.3746Z" fill="#EA5F4C"/>
<path d="M112.061 89.517C114.639 89.517 116.729 87.4271 116.729 84.849C116.729 82.271 114.639 80.1811 112.061 80.1811C109.483 80.1811 107.393 82.271 107.393 84.849C107.393 87.4271 109.483 89.517 112.061 89.517Z" fill="#D04146"/>
<path d="M122.422 55.2475C124.119 55.2475 125.496 53.8712 125.496 52.1735C125.496 50.4758 124.119 49.0995 122.422 49.0995C120.724 49.0995 119.348 50.4758 119.348 52.1735C119.348 53.8712 120.724 55.2475 122.422 55.2475Z" fill="#D04146"/>
<path fill-rule="evenodd" clip-rule="evenodd" d="M104.889 117.525C110.581 117.525 115.135 112.97 115.135 107.278C115.135 101.585 110.581 97.0312 104.889 97.0312C99.1959 97.0312 94.6418 101.585 94.6418 107.278C94.6418 112.97 99.3098 117.525 104.889 117.525Z" fill="#EA5F4C"/>
<path d="M95.3249 122.192C96.9597 122.192 98.285 120.867 98.285 119.232C98.285 117.597 96.9597 116.272 95.3249 116.272C93.69 116.272 92.3647 117.597 92.3647 119.232C92.3647 120.867 93.69 122.192 95.3249 122.192Z" fill="#EA5F4C"/>
<path d="M117.184 101.585C118.002 101.585 118.664 100.923 118.664 100.105C118.664 99.2878 118.002 98.6251 117.184 98.6251C116.367 98.6251 115.704 99.2878 115.704 100.105C115.704 100.923 116.367 101.585 117.184 101.585Z" fill="#EA5F4C"/>
<path d="M109.443 96.9174C110.512 96.9174 111.378 96.0508 111.378 94.9819C111.378 93.9129 110.512 93.0464 109.443 93.0464C108.374 93.0464 107.507 93.9129 107.507 94.9819C107.507 96.0508 108.374 96.9174 109.443 96.9174Z" fill="#D04146"/>
<path d="M27.8107 81.0919C28.8797 81.0919 29.7462 80.2254 29.7462 79.1564C29.7462 78.0875 28.8797 77.2209 27.8107 77.2209C26.7418 77.2209 25.8752 78.0875 25.8752 79.1564C25.8752 80.2254 26.7418 81.0919 27.8107 81.0919Z" fill="#F29F6D"/>
<path fill-rule="evenodd" clip-rule="evenodd" d="M42.4976 103.521C48.7594 103.521 53.9966 98.3974 53.9966 92.0217C53.8828 85.7598 48.7594 80.6365 42.4976 80.6365C36.2357 80.6365 30.9985 85.7598 30.9985 92.1355C30.9985 98.3974 36.1219 103.521 42.4976 103.521Z" fill="#F29F6D"/>
<path fill-rule="evenodd" clip-rule="evenodd" d="M42.4976 100.105C46.9378 100.105 50.581 96.4619 50.581 92.0217C50.581 87.5815 46.9378 83.9382 42.4976 83.9382C38.0573 83.9382 34.4141 87.5815 34.4141 92.0217C34.4141 96.5758 38.0573 100.105 42.4976 100.105Z" fill="#EA5F4C"/>
<path d="M101.018 54.2228C103.407 54.2228 105.344 52.2858 105.344 49.8964C105.344 47.5071 103.407 45.5701 101.018 45.5701C98.6281 45.5701 96.6912 47.5071 96.6912 49.8964C96.6912 52.2858 98.6281 54.2228 101.018 54.2228Z" fill="#F29F6D"/>
<path d="M64.6987 64.2418C67.0881 64.2418 69.0251 62.3048 69.0251 59.9154C69.0251 57.526 67.0881 55.5891 64.6987 55.5891C62.3093 55.5891 60.3723 57.526 60.3723 59.9154C60.3723 62.3048 62.3093 64.2418 64.6987 64.2418Z" fill="#F29F6D"/>
<path d="M65.2679 36.9173C66.4626 36.9173 67.4311 35.9488 67.4311 34.7541C67.4311 33.5594 66.4626 32.5909 65.2679 32.5909C64.0732 32.5909 63.1047 33.5594 63.1047 34.7541C63.1047 35.9488 64.0732 36.9173 65.2679 36.9173Z" fill="#F29F6D"/>
<path fill-rule="evenodd" clip-rule="evenodd" d="M81.6627 80.4088C84.8505 80.4088 87.4691 77.7902 87.4691 74.6024C87.4691 71.4145 84.8505 68.7959 81.6627 68.7959C78.4748 68.7959 75.8562 71.4145 75.8562 74.6024C75.8562 77.7902 78.4748 80.4088 81.6627 80.4088Z" fill="#F29F6D"/>
<path fill-rule="evenodd" clip-rule="evenodd" d="M107.735 24.6213C105.799 28.2646 102.042 30.6555 97.6018 30.6555C91.2261 30.6555 86.1028 25.5321 86.1028 19.1564C86.1028 18.0179 86.3305 16.8794 86.5582 15.7408C94.1863 17.3348 101.359 20.4088 107.735 24.6213Z" fill="#F29F6D"/>
<path fill-rule="evenodd" clip-rule="evenodd" d="M104.774 22.7997C103.408 25.4183 100.676 27.2399 97.6018 27.2399C93.1616 27.2399 89.5183 23.5967 89.5183 19.1564C89.5183 18.2456 89.6322 17.3348 89.9737 16.5378C95.2109 18.0179 100.22 20.0673 104.774 22.7997Z" fill="#EA5F4C"/>
</svg>
