<svg width="150" height="150" viewBox="0 0 150 150" fill="none" xmlns="http://www.w3.org/2000/svg">
<path d="M91.692 132.12C123.457 122.683 141.557 89.2812 132.12 57.516C122.683 25.7508 89.2812 7.65055 57.516 17.088C25.7508 26.5254 7.65056 59.9268 17.088 91.692C26.5254 123.457 59.9268 141.557 91.692 132.12Z" fill="#A1B9A5"/>
<path fill-rule="evenodd" clip-rule="evenodd" d="M124.243 63.5588C124.243 95.0958 98.6267 120.599 67.2035 120.599C45.3439 120.713 26.3307 108.416 16.7671 90.4279C23.7121 115.931 46.9379 134.602 74.6039 134.602C107.735 134.602 134.604 107.733 134.604 74.6024C134.604 55.0199 125.268 37.6006 110.695 26.6708C119.12 36.6897 124.243 49.555 124.243 63.5588Z" fill="#7B9186"/>
<path fill-rule="evenodd" clip-rule="evenodd" d="M30.5431 62.7618C29.86 65.1527 27.3553 66.4051 25.0782 65.722C22.6873 65.0389 21.435 62.5341 22.1181 60.2571C24.2813 52.8567 28.0384 46.1395 32.934 40.2191C37.8297 34.2988 43.9777 29.2894 50.8088 25.6461C52.972 24.5076 55.7044 25.3045 56.8429 27.4677C57.9814 29.6309 57.1845 32.3634 55.0213 33.5019C49.2148 36.5759 43.9777 40.7884 39.7651 45.7979C35.4388 50.8074 32.3648 56.5 30.5431 62.7618ZM66.9758 29.0617C64.5849 29.6309 62.194 28.1508 61.6247 25.7599C61.0555 23.3691 62.5355 20.9782 64.9264 20.4089C66.0649 20.1812 67.3173 19.9535 68.6835 19.7258C69.9359 19.4981 71.1883 19.3842 72.4407 19.2704C74.8315 19.0427 76.9947 20.8643 77.2224 23.2552C77.4501 25.6461 75.6285 27.8093 73.2376 28.037C72.2129 28.1508 71.0744 28.2647 70.0498 28.3785C69.0251 28.6062 68.0004 28.8339 66.9758 29.0617Z" fill="#C5DCBD"/>
<path fill-rule="evenodd" clip-rule="evenodd" d="M65.6094 128.91C70.6189 128.91 74.7175 124.811 74.7175 119.802C74.7175 114.792 70.6189 110.694 65.6094 110.694C60.5999 110.694 56.5012 114.792 56.5012 119.802C56.5012 124.697 60.5999 128.91 65.6094 128.91Z" fill="#7B9186"/>
<path d="M79.6132 116.045C82.5685 116.045 84.9643 113.649 84.9643 110.694C84.9643 107.738 82.5685 105.342 79.6132 105.342C76.6579 105.342 74.2622 107.738 74.2622 110.694C74.2622 113.649 76.6579 116.045 79.6132 116.045Z" fill="#7B9186"/>
<path d="M53.0859 115.931C54.1548 115.931 55.0214 115.064 55.0214 113.995C55.0214 112.926 54.1548 112.06 53.0859 112.06C52.0169 112.06 51.1504 112.926 51.1504 113.995C51.1504 115.064 52.0169 115.931 53.0859 115.931Z" fill="#7B9186"/>
<path fill-rule="evenodd" clip-rule="evenodd" d="M120.942 78.5873C126.748 78.5873 131.53 73.8055 131.53 67.999C131.53 62.1926 126.748 57.4108 120.942 57.4108C115.135 57.4108 110.353 62.1926 110.353 67.999C110.467 73.8055 115.135 78.5873 120.942 78.5873Z" fill="#7B9186"/>
<path fill-rule="evenodd" clip-rule="evenodd" d="M120.942 74.3748C124.357 74.3748 127.203 71.5285 127.203 68.1129C127.203 64.6973 124.357 61.851 120.942 61.851C117.526 61.851 114.68 64.6973 114.68 68.1129C114.68 71.5285 117.526 74.3748 120.942 74.3748Z" fill="#A1B9A5"/>
<path d="M112.061 89.5171C114.639 89.5171 116.729 87.4272 116.729 84.8491C116.729 82.2711 114.639 80.1812 112.061 80.1812C109.483 80.1812 107.393 82.2711 107.393 84.8491C107.393 87.4272 109.483 89.5171 112.061 89.5171Z" fill="#7B9186"/>
<path d="M122.422 55.2476C124.119 55.2476 125.496 53.8713 125.496 52.1736C125.496 50.4759 124.119 49.0996 122.422 49.0996C120.724 49.0996 119.348 50.4759 119.348 52.1736C119.348 53.8713 120.724 55.2476 122.422 55.2476Z" fill="#7B9186"/>
<path fill-rule="evenodd" clip-rule="evenodd" d="M104.889 117.525C110.581 117.525 115.135 112.971 115.135 107.278C115.135 101.585 110.581 97.0313 104.889 97.0313C99.1959 97.0313 94.6418 101.585 94.6418 107.278C94.6418 112.857 99.3098 117.525 104.889 117.525Z" fill="#A1B9A5"/>
<path d="M95.3249 122.193C96.9597 122.193 98.285 120.867 98.285 119.232C98.285 117.598 96.9597 116.272 95.3249 116.272C93.69 116.272 92.3647 117.598 92.3647 119.232C92.3647 120.867 93.69 122.193 95.3249 122.193Z" fill="#A1B9A5"/>
<path d="M117.184 101.585C118.002 101.585 118.664 100.923 118.664 100.105C118.664 99.2879 118.002 98.6252 117.184 98.6252C116.367 98.6252 115.704 99.2879 115.704 100.105C115.704 100.923 116.367 101.585 117.184 101.585Z" fill="#A1B9A5"/>
<path d="M109.443 96.9174C110.512 96.9174 111.378 96.0509 111.378 94.982C111.378 93.913 110.512 93.0465 109.443 93.0465C108.374 93.0465 107.507 93.913 107.507 94.982C107.507 96.0509 108.374 96.9174 109.443 96.9174Z" fill="#7B9186"/>
<path d="M36.5773 62.8757C37.6463 62.8757 38.5128 62.0092 38.5128 60.9402C38.5128 59.8713 37.6463 59.0047 36.5773 59.0047C35.5084 59.0047 34.6418 59.8713 34.6418 60.9402C34.6418 62.0092 35.5084 62.8757 36.5773 62.8757Z" fill="#C5DCBD"/>
<path fill-rule="evenodd" clip-rule="evenodd" d="M45.4578 95.6651C51.7197 95.6651 56.9568 90.5417 56.9568 84.166C56.9568 77.9042 51.8335 72.667 45.4578 72.667C39.0821 72.667 33.9587 77.9042 33.9587 84.2799C33.9587 90.5417 39.0821 95.6651 45.4578 95.6651Z" fill="#C5DCBD"/>
<path fill-rule="evenodd" clip-rule="evenodd" d="M45.4578 92.2495C49.898 92.2495 53.5413 88.6062 53.5413 84.166C53.5413 79.7258 49.898 76.0825 45.4578 76.0825C41.0175 76.0825 37.3743 79.7258 37.3743 84.166C37.3743 88.7201 41.0175 92.2495 45.4578 92.2495Z" fill="#A1B9A5"/>
<path d="M44.7746 69.9345C47.164 69.9345 49.101 67.9975 49.101 65.6081C49.101 63.2188 47.164 61.2818 44.7746 61.2818C42.3852 61.2818 40.4482 63.2188 40.4482 65.6081C40.4482 67.9975 42.3852 69.9345 44.7746 69.9345Z" fill="#C5DCBD"/>
<path d="M84.9643 43.5209C87.3537 43.5209 89.2907 41.5839 89.2907 39.1945C89.2907 36.8051 87.3537 34.8681 84.9643 34.8681C82.5749 34.8681 80.6379 36.8051 80.6379 39.1945C80.6379 41.5839 82.5749 43.5209 84.9643 43.5209Z" fill="#C5DCBD"/>
<path d="M65.2682 36.9174C66.4629 36.9174 67.4314 35.9489 67.4314 34.7543C67.4314 33.5596 66.4629 32.5911 65.2682 32.5911C64.0735 32.5911 63.105 33.5596 63.105 34.7543C63.105 35.9489 64.0735 36.9174 65.2682 36.9174Z" fill="#C5DCBD"/>
<path d="M81.6627 80.4089C84.8695 80.4089 87.4691 77.8093 87.4691 74.6024C87.4691 71.3956 84.8695 68.796 81.6627 68.796C78.4558 68.796 75.8562 71.3956 75.8562 74.6024C75.8562 77.8093 78.4558 80.4089 81.6627 80.4089Z" fill="#C5DCBD"/>
</svg>
