<svg width="150" height="150" viewBox="0 0 150 150" fill="none" xmlns="http://www.w3.org/2000/svg">
<path d="M91.692 132.12C123.457 122.683 141.557 89.2812 132.12 57.516C122.683 25.7508 89.2812 7.65056 57.516 17.088C25.7508 26.5254 7.65056 59.9268 17.088 91.692C26.5254 123.457 59.9268 141.557 91.692 132.12Z" fill="#FAE2AA"/>
<path d="M95.2112 90.8827C97.4749 90.8827 99.3099 89.0477 99.3099 86.784C99.3099 84.5204 97.4749 82.6854 95.2112 82.6854C92.9476 82.6854 91.1125 84.5204 91.1125 86.784C91.1125 89.0477 92.9476 90.8827 95.2112 90.8827Z" fill="#BD8C51"/>
<path fill-rule="evenodd" clip-rule="evenodd" d="M124.243 63.5582C124.243 95.0952 98.6267 120.598 67.0897 120.598C45.3439 120.712 26.3307 108.416 16.7671 90.4273C23.7121 115.93 46.9379 134.602 74.6039 134.602C107.735 134.602 134.604 107.733 134.604 74.6019C134.604 55.0193 125.268 37.6 110.695 26.6702C119.12 36.6892 124.243 49.5545 124.243 63.5582Z" fill="#ECCD94"/>
<path fill-rule="evenodd" clip-rule="evenodd" d="M85.9892 15.7404C80.8659 21.6607 70.733 31.5658 56.7292 36.5753C45.2302 40.7878 35.4389 38.5108 28.9494 35.6645C36.2359 27.1256 45.9133 20.5222 57.5262 17.1066C67.0898 14.2603 76.881 13.9188 85.9892 15.7404ZM134.376 69.2508C134.035 65.3799 133.238 61.5089 132.099 57.5241C129.595 49.099 125.382 41.5848 120.031 35.4368C120.031 35.5506 119.917 35.5506 119.917 35.6645C115.705 43.1787 86.9 59.915 67.0898 65.8353C47.2795 71.7556 75.9702 63.2167 43.4086 72.8941C25.9892 77.9036 18.1334 77.4482 14.604 75.8542C14.7179 81.0914 15.5148 86.4425 17.1087 91.6797C17.2226 91.9074 17.3364 92.2489 17.3364 92.4766C26.7862 93.5013 42.6116 88.8334 55.4769 85.0763C71.4161 80.2945 76.4256 78.8144 104.319 70.6171C119.006 66.1768 128.57 67.2015 134.376 69.2508ZM127.317 103.179C121.853 102.04 113.541 101.699 102.498 105C81.0936 111.376 67.4313 115.475 55.4769 119.004C50.9228 120.37 47.2795 123.331 44.4332 126.518C37.0328 122.306 30.6571 116.386 25.6476 109.327L132.441 90.3135C131.302 94.7537 129.595 99.0801 127.317 103.179Z" fill="#DABD86"/>
<path fill-rule="evenodd" clip-rule="evenodd" d="M124.243 63.5583C124.243 64.9245 124.243 66.1769 124.13 67.4292C128.456 67.5431 131.758 68.2262 134.376 69.137C134.262 68.2262 134.148 67.4292 134.035 66.5184C133.579 63.4444 133.01 60.4842 132.099 57.4102C130.961 53.5393 129.481 49.896 127.659 46.3666C125.496 42.3818 122.991 38.6247 120.031 35.2091C120.031 35.323 119.917 35.323 119.917 35.4368C119.575 36.1199 118.892 36.9169 118.209 37.7139C122.08 45.5696 124.243 54.3362 124.243 63.5583ZM115.932 93.2736C113.655 97.0307 110.923 100.56 107.849 103.634C116.274 101.813 122.763 102.268 127.317 103.179C129.481 99.0801 131.188 94.8676 132.441 90.3135L115.932 93.2736ZM54.5659 119.346C46.027 117.41 38.1713 113.539 31.5678 108.302L25.6475 109.327C29.0631 114.109 33.1618 118.435 37.8297 121.964L38.0574 122.192L38.6267 122.534C40.5622 123.9 42.4976 125.266 44.547 126.405C47.0517 123.558 50.4673 120.712 54.5659 119.346ZM17.9056 92.5905C17.4502 91.9074 17.1086 91.2243 16.7671 90.5412C16.8809 90.8827 16.9948 91.3381 17.1086 91.6797C17.2225 91.9074 17.3363 92.249 17.3363 92.4767C17.5641 92.5905 17.7918 92.5905 17.9056 92.5905Z" fill="#C09D6D"/>
<path fill-rule="evenodd" clip-rule="evenodd" d="M110.012 26.2148L85.5337 33.5013C74.3762 36.803 76.4255 39.5355 59.5755 44.545C45.0024 48.8713 31.5679 47.2774 22.9151 44.2034C21.2073 47.1635 19.7273 50.2376 18.4749 53.5393C27.4692 56.044 43.5223 58.5487 62.3079 52.2869C91.3402 42.6095 79.0441 42.951 98.399 37.2584L116.729 31.7935C114.566 29.7442 112.403 27.9226 110.012 26.2148ZM121.625 111.831C106.027 111.148 80.5242 113.653 56.9569 131.869C67.8866 135.285 79.955 135.513 91.6817 131.983C103.978 128.454 114.224 121.167 121.625 111.831ZM133.352 86.5563C133.01 88.1503 132.668 89.7442 132.213 91.2243L74.4901 108.416L35.4388 120.029C29.2908 114.792 24.2813 108.188 20.6381 100.674C24.6229 99.4216 33.1618 96.803 39.7652 94.9814C48.7595 92.5905 57.0707 97.1446 68.1143 97.0307C79.0441 96.9169 81.0935 91.7935 86.4445 91.7935C91.7956 91.7935 99.8791 96.4615 110.012 93.3875L133.352 86.5563ZM132.782 60.0288C129.594 58.7765 124.357 58.0933 116.388 60.4842C99.4237 65.4937 84.6229 69.9339 69.8221 74.3742C55.0214 78.8144 40.1068 83.2546 34.0726 84.9624C29.8601 86.2148 21.6627 87.2394 15.7424 85.7594C15.5147 84.3931 15.287 83.0269 15.0593 81.6607C19.3857 82.6854 26.6722 82.9131 37.9436 79.6114C60.2586 73.0079 86.8999 65.0383 98.8544 61.5089C107.963 58.7765 120.6 50.8068 126.407 44.2034C128.797 48.3021 130.733 52.7423 132.213 57.5241C132.327 58.321 132.555 59.2319 132.782 60.0288Z" fill="#BD8C51"/>
<path fill-rule="evenodd" clip-rule="evenodd" d="M114.908 32.3628L116.615 31.9074C115.363 30.5412 114.111 29.4026 112.744 28.2641L112.631 28.1503L112.289 27.9226L112.175 27.8087C111.72 27.4672 111.151 27.0118 110.695 26.6702C112.175 28.4918 113.655 30.3135 114.908 32.3628ZM116.957 91.452C115.932 93.2736 114.794 95.0952 113.541 96.803L132.213 91.2243C132.669 89.6304 133.01 88.1503 133.352 86.5563L116.957 91.452ZM92.5926 114.792C87.9247 117.069 82.9152 118.776 77.678 119.801C70.8469 122.761 63.7881 126.746 56.957 131.983C58.7786 132.553 60.7141 133.008 62.6496 133.463L62.7634 133.463C62.9911 133.463 63.2188 133.577 63.4465 133.577C67.0898 134.26 70.7331 134.602 74.604 134.602C77.678 134.602 80.6382 134.374 83.5983 133.919L84.0537 133.805C84.2814 133.805 84.5091 133.691 84.7369 133.691C87.1277 133.236 89.4048 132.78 91.7957 132.097C95.4389 130.959 98.9683 129.592 102.27 127.885C102.612 127.657 102.953 127.543 103.295 127.315C110.467 123.444 116.729 118.207 121.739 111.831C113.883 111.49 103.75 111.945 92.5926 114.792ZM46.3687 116.841C37.2606 113.312 29.2909 107.391 23.1429 99.9909C22.2321 100.332 21.3213 100.56 20.6382 100.788C20.9797 101.585 21.4351 102.496 22.0044 103.406L22.2321 103.748L22.4598 104.203C25.8754 110.238 30.3156 115.589 35.5528 120.143L46.3687 116.841ZM126.407 44.3173C125.154 45.5696 123.788 46.9359 122.194 48.3021C123.105 51.7176 123.788 55.3609 124.13 59.0042C128.001 58.6626 130.847 59.2319 132.896 60.0288C132.669 59.2319 132.441 58.3211 132.213 57.5241C130.847 52.97 129.025 48.7575 126.748 44.7727L126.634 44.545L126.407 44.3173Z" fill="#A3702F"/>
<path fill-rule="evenodd" clip-rule="evenodd" d="M30.5431 62.7613C29.86 65.1522 27.3553 66.4045 25.0782 65.7214C22.6873 65.0383 21.435 62.5336 22.1181 60.2565C24.2813 52.8562 28.0384 46.1389 32.934 40.2186C37.8297 34.2983 43.9777 29.2888 50.8088 25.6455C52.972 24.507 55.7044 25.304 56.8429 27.4672C57.9815 29.6303 57.1845 32.3628 55.0213 33.5013C49.2149 36.5753 43.9777 40.7878 39.7651 45.7973C35.4388 50.8068 32.3648 56.4994 30.5431 62.7613ZM66.9758 29.0611C64.5849 29.6303 62.194 28.1503 61.6247 25.7594C61.0555 23.3685 62.5355 20.9776 64.9264 20.4083C66.0649 20.1806 67.3173 19.9529 68.6835 19.7252C69.9359 19.4975 71.1883 19.3837 72.4407 19.2698C74.8315 19.0421 76.9947 20.8637 77.2224 23.2546C77.4501 25.6455 75.6285 27.8087 73.2376 28.0364C72.213 28.1503 71.0744 28.2641 70.0498 28.378C69.0251 28.6057 68.0004 28.8334 66.9758 29.0611Z" fill="#FFEBBC"/>
<path d="M50.3534 59.4596C52.6799 59.4596 54.5659 57.5736 54.5659 55.247C54.5659 52.9205 52.6799 51.0345 50.3534 51.0345C48.0269 51.0345 46.1409 52.9205 46.1409 55.247C46.1409 57.5736 48.0269 59.4596 50.3534 59.4596Z" fill="#BD8C51"/>
<path d="M58.6646 60.3704C59.6077 60.3704 60.3723 59.6058 60.3723 58.6626C60.3723 57.7194 59.6077 56.9548 58.6646 56.9548C57.7214 56.9548 56.9568 57.7194 56.9568 58.6626C56.9568 59.6058 57.7214 60.3704 58.6646 60.3704Z" fill="#BD8C51"/>
<path d="M72.0991 42.4956C73.5453 42.4956 74.7177 41.3232 74.7177 39.877C74.7177 38.4308 73.5453 37.2584 72.0991 37.2584C70.6529 37.2584 69.4805 38.4308 69.4805 39.877C69.4805 41.3232 70.6529 42.4956 72.0991 42.4956Z" fill="#BD8C51"/>
<path d="M96.122 58.4349C98.8887 58.4349 101.132 56.1921 101.132 53.4254C101.132 50.6587 98.8887 48.4159 96.122 48.4159C93.3554 48.4159 91.1125 50.6587 91.1125 53.4254C91.1125 56.1921 93.3554 58.4349 96.122 58.4349Z" fill="#DABD86"/>
<path d="M76.7672 117.069C78.9051 117.069 80.6382 115.336 80.6382 113.198C80.6382 111.06 78.9051 109.327 76.7672 109.327C74.6293 109.327 72.8962 111.06 72.8962 113.198C72.8962 115.336 74.6293 117.069 76.7672 117.069Z" fill="#DABD86"/>
<path d="M61.8524 90.3134C65.1221 90.3134 67.7727 87.6628 67.7727 84.3931C67.7727 81.1235 65.1221 78.4728 61.8524 78.4728C58.5827 78.4728 55.9321 81.1235 55.9321 84.3931C55.9321 87.6628 58.5827 90.3134 61.8524 90.3134Z" fill="#DABD86"/>
<path d="M53.1995 92.5905C54.5199 92.5905 55.5904 91.5201 55.5904 90.1996C55.5904 88.8792 54.5199 87.8087 53.1995 87.8087C51.879 87.8087 50.8086 88.8792 50.8086 90.1996C50.8086 91.5201 51.879 92.5905 53.1995 92.5905Z" fill="#DABD86"/>
<path d="M70.2774 84.507C70.9062 84.507 71.416 83.9973 71.416 83.3685C71.416 82.7397 70.9062 82.23 70.2774 82.23C69.6486 82.23 69.1389 82.7397 69.1389 83.3685C69.1389 83.9973 69.6486 84.507 70.2774 84.507Z" fill="#DABD86"/>
</svg>
